<?xml version="1.0" encoding="UTF-8"?>
<svg id="Capa_1" data-name="Capa 1" xmlns="http://www.w3.org/2000/svg" viewBox="0 0 144.02 135.76">
  <defs>
    <style>
      .cls-1 {
        fill: #e7741f;
      }

      .cls-2 {
        fill: #5e6257;
      }

      .cls-3 {
        fill: #fefdfd;
      }
    </style>
  </defs>
  <path class="cls-1" d="M27.04,124.56l-12.53,11.16c-1.45.43-5.65-2.87-6.81-3.94-4.18-3.88-7.29-10.28-7.69-15.99L.02,22.98c.41-5.05,3.36-11.11,6.83-14.77S16.09,1.35,21.06.5c33.79-.67,67.8-.67,101.59,0,11.32,1.87,19.71,11.26,21.36,22.48v85.04c.01,8.89-4.67,17.27-17.94,17.49M70.09,23.3c.15,2.98-.11,7.03,0,10.4-1.35.68-2.41.01-3.67-.01-15.06-.33-29.67,3.42-32.14,20.69-.11.74.15,2.24-.18,2.7-.74,1.06-5.97-.88-6.76,1.56-.39,1.2-.29,8.18-.15,9.79.04.49.04,1.12.31,1.53.66,1.05,5.42.28,6.71.57.38,5.81,2.08,11.27,5.8,15.8,2,2.43,4.67,4.07,6.99,6.15-.16,1.81-4.19,12.83-3.48,13.54l1.1-.02,20.9-10.79c16.78.44,37.42,1.91,42.8-18.32.31-1.15.77-5.84.94-6.1.63-.92,6.04.51,6.69-1.01-.05-2.62.88-9.19-.03-11.36s-5.93-.27-6.66-1.34c-.15-.22-.42-3.68-.61-4.51-2.61-11.83-12.7-18.24-24.32-18.88-2.91-.16-7.94,0-10.59,0-.21,0-.15-.24-.15-.46v-9.28c0-1.89,2.8-2.23,3.79-4.21,2.69-5.43-2.67-10.8-8.13-8.45-3.6,1.55-4.53,6.8-1.91,9.63.65.71,2.69,1.54,2.73,2.39Z"/>
  <g>
    <path class="cls-3" d="M70.09,23.3c-.15-.83-2.08-1.68-2.73-2.39-2.62-2.83-1.69-8.08,1.91-9.63,5.46-2.35,10.82,3.01,8.13,8.45-.98,1.98-3.79,2.32-3.79,4.21v9.72c16.64-1.35,34.75,3.83,35.66,23.43.73,1.07,5.74-.85,6.66,1.34s-.02,8.74.03,11.36c-.65,1.52-6.06.09-6.69,1.01-.84,23.96-24.96,25.97-43.75,24.41,0,0-20.9,10.79-20.9,10.79,0,0-1.1.02-1.1.02-.71-.71,3.32-11.73,3.48-13.54-7.48-5.05-12.59-12.73-12.79-21.94-1.3-.29-6.05.48-6.71-.57-.73-2.22-.47-9.31-.15-11.33.79-2.44,6.02-.5,6.76-1.56.46-20.19,19.25-24.49,35.98-23.38v-10.4ZM64.32,58.8c.12-7.92-12.32-7.92-12.21,0-.12,7.92,12.32,7.92,12.21,0ZM91.15,59.02c.11-7.84-12.21-7.84-12.09,0-.11,7.84,12.21,7.84,12.09,0Z"/>
    <circle class="cls-2" cx="58.21" cy="58.8" r="6.1"/>
    <circle class="cls-2" cx="85.1" cy="59.02" r="6.05"/>
  </g>
</svg>